<svg xmlns="http://www.w3.org/2000/svg" xmlns:xlink="http://www.w3.org/1999/xlink" id="Capa_1" x="0px" y="0px" viewBox="0 0 512.001 512.001" style="enable-background:new 0 0 512.001 512.001;" xml:space="preserve">
<g>
	<g>
		<path d="M363.005,165.061c-2.928-2.929-6.768-4.394-10.605-4.394c-3.84,0-7.678,1.465-10.607,4.394l-22.594,22.593V31.068    c0-8.284-6.715-15-15-15c-8.283,0-15,6.716-15,15v156.586l-22.592-22.593c-2.93-2.929-6.768-4.394-10.607-4.394    c-3.838,0.001-7.678,1.465-10.605,4.394c-5.859,5.857-5.859,15.355,0,21.213l48.199,48.199c2.928,2.93,6.766,4.393,10.605,4.393    c3.838,0,7.678-1.465,10.607-4.393l48.199-48.199C368.862,180.417,368.862,170.919,363.005,165.061z"></path>
	</g>
</g>
<g>
	<g>
		<path d="M127.467,319.201h353.467c7.869,0,14.4-6.082,14.961-13.932l16.068-224.933c0.297-4.153-1.146-8.243-3.984-11.29    c-2.838-3.048-6.814-4.778-10.978-4.778H349.199v66.511c1.061-0.074,2.127-0.111,3.201-0.111c12.02,0,23.32,4.681,31.82,13.18    c8.498,8.5,13.18,19.801,13.18,31.82c0,12.021-4.682,23.321-13.182,31.82l-48.199,48.199c-8.5,8.499-19.801,13.18-31.82,13.18    c-12.021,0-23.322-4.682-31.82-13.18l-48.197-48.199c-8.5-8.499-13.182-19.8-13.182-31.82c0-12.02,4.682-23.321,13.182-31.82    c8.498-8.498,19.799-13.18,31.818-13.18c1.072,0,2.141,0.037,3.199,0.111V64.268H122.525l-4.211-50.513    c-0.648-7.774-7.146-13.754-14.948-13.754H15c-8.284,0-15,6.717-15,15c0,8.284,6.716,15,15,15h74.564l4.393,52.7l17.381,208.594    c-27.061,7.148-47.071,31.83-47.071,61.106c0,34.849,28.351,63.2,63.2,63.2h2.49c-5.986,9.656-9.453,21.029-9.453,33.201    c0,34.848,28.352,63.199,63.199,63.199c34.848,0,63.199-28.352,63.199-63.199c0-12.172-3.467-23.545-9.453-33.201h141.537    c-5.986,9.656-9.453,21.029-9.453,33.201c0,34.848,28.352,63.199,63.199,63.199c34.85,0,63.201-28.352,63.201-63.199    c0-12.541-3.688-24.23-10.012-34.068c5.828-2.059,10.012-7.6,10.012-14.133c0-8.284-6.717-15-15-15H127.467    c-18.307,0-33.2-14.893-33.2-33.2C94.267,334.095,109.16,319.201,127.467,319.201z M432.732,415.601    c18.307,0,33.201,14.894,33.201,33.201c0,18.306-14.895,33.199-33.201,33.199c-18.307,0-33.199-14.894-33.199-33.199    C399.533,430.495,414.426,415.601,432.732,415.601z M183.703,415.601c18.307,0,33.199,14.894,33.199,33.201    c0,18.306-14.893,33.199-33.199,33.199c-18.307,0-33.199-14.894-33.199-33.199C150.504,430.495,165.396,415.601,183.703,415.601z"></path>
	</g>
</g>
<g>
</g>
<g>
</g>
<g>
</g>
<g>
</g>
<g>
</g>
<g>
</g>
<g>
</g>
<g>
</g>
<g>
</g>
<g>
</g>
<g>
</g>
<g>
</g>
<g>
</g>
<g>
</g>
<g>
</g>
</svg>