<svg xmlns="http://www.w3.org/2000/svg" id="Capa_1" height="512" viewBox="0 0 512 512" width="512"><g><path d="m222.527 421.625h66.945c8.284 0 15-6.716 15-15v-83.292h18.472c8.284 0 15-6.716 15-15v-69.07c0-.513-.029-1.019-.039-1.53l-130.378 130.379v38.513c0 8.284 6.716 15 15 15z"></path><path d="m174.056 274.305 60.102-60.102c-16.361-4.75-30.533-14.682-40.607-27.91-12.145 14.296-19.495 32.786-19.495 52.97z"></path><path d="m304.172 144.188c.193-1.755.301-3.536.301-5.341 0-26.728-21.745-48.472-48.473-48.472s-48.473 21.745-48.473 48.472 21.745 48.472 48.473 48.472c1.806 0 3.587-.107 5.342-.301z"></path><path d="m437.02 74.98c-48.353-48.351-112.64-74.98-181.02-74.98s-132.667 26.629-181.02 74.98c-48.351 48.353-74.98 112.64-74.98 181.02s26.629 132.667 74.98 181.02c48.353 48.351 112.64 74.98 181.02 74.98s132.667-26.629 181.02-74.98c48.351-48.353 74.98-112.64 74.98-181.02s-26.629-132.667-74.98-181.02zm-407.02 181.02c0-124.617 101.383-226 226-226 56.922 0 108.989 21.162 148.768 56.02l-318.749 318.747c-34.858-39.779-56.019-91.845-56.019-148.767zm226 226c-56.922 0-108.989-21.162-148.768-56.02l318.748-318.747c34.858 39.779 56.02 91.845 56.02 148.767 0 124.617-101.383 226-226 226z"></path></g></svg>