<svg xmlns="http://www.w3.org/2000/svg" id="Layer_1" height="512" viewBox="0 0 512 512" width="512"><g><path d="m158.533 280.1c0-34.849-28.352-63.2-63.2-63.2s-63.199 28.352-63.199 63.2 28.351 63.2 63.199 63.2 63.2-28.351 63.2-63.2z"></path><path d="m479.866 280.1c0-34.849-28.352-63.2-63.2-63.2s-63.199 28.352-63.199 63.2 28.351 63.2 63.199 63.2 63.2-28.351 63.2-63.2z"></path><path d="m175.667 232.9c11.848-20.089 31.012-35.367 53.802-42.147-11.142-18.037-31.089-30.087-53.802-30.087-22.714 0-42.66 12.05-53.802 30.087 22.791 6.78 41.954 22.059 53.802 42.147z"></path><path d="m282.531 190.753c22.79 6.78 41.953 22.058 53.802 42.147 11.848-20.089 31.012-35.367 53.802-42.147-11.142-18.037-31.089-30.087-53.802-30.087-22.714.001-42.66 12.05-53.802 30.087z"></path><path d="m319.2 280.1c0-34.849-28.352-63.2-63.2-63.2s-63.2 28.351-63.2 63.2 28.351 63.2 63.199 63.2 63.201-28.351 63.201-63.2z"></path><path d="m0 438.633v58.367c0 8.284 6.716 15 15 15h118.246c-1.665-4.695-2.58-9.742-2.58-15v-58.367c0-27.76 9.078-53.437 24.413-74.23-16.358-13.192-37.144-21.103-59.746-21.103-52.566 0-95.333 42.766-95.333 95.333z"></path><path d="m416.666 343.3c-22.602 0-43.387 7.911-59.745 21.103 15.335 20.793 24.413 46.47 24.413 74.23v58.367c0 5.258-.915 10.305-2.58 15h118.246c8.284 0 15-6.716 15-15v-58.367c0-52.567-42.767-95.333-95.334-95.333z"></path><path d="m256 343.3c-52.566 0-95.333 42.767-95.333 95.333v58.367c0 8.284 6.716 15 15 15h160.667c8.284 0 15-6.716 15-15v-58.367c-.001-52.567-42.767-95.333-95.334-95.333z"></path><path d="m197.193 122.007c5.857 5.858 15.355 5.858 21.213 0l37.594-37.594 37.594 37.594c5.858 5.858 15.356 5.858 21.213 0 5.858-5.858 5.858-15.355 0-21.213l-37.594-37.594 37.594-37.594c5.858-5.857 5.858-15.355 0-21.213-5.856-5.858-15.354-5.858-21.213 0l-37.594 37.594-37.594-37.593c-5.857-5.858-15.355-5.858-21.213 0s-5.858 15.355 0 21.213l37.594 37.593-37.594 37.594c-5.858 5.857-5.858 15.355 0 21.213z"></path></g></svg>